# xmcd
# 
# Track frame offsets:
#     150
#     17049
#     39137
#     62776
#     71664
#     77802
#     108154
# 
# Disc length: 4723
# 
# Revision: 1
# Processed by: cddbd v1.5.2PL0 Copyright (c) Steve Scherf et al.
# Submitted via: BonkEnc v1.0.8
# 
DISCID=50127107
DTITLE=Jara Cimrman - Ceske nebe (Cimrmanuv dramaticky ksaft)
DYEAR=2009
DGENRE=MLUVENÉ SLOVO
TTITLE0=Nalez hry Ceske nebe
TTITLE1=Dymokurske obdobi
TTITLE2=Zapirany cesky vojevudce
TTITLE3=Nebasnicke jmeno
TTITLE4=Flaska a Krabice
TTITLE5=Rukopisne padelky
TTITLE6=Hra Ceske nebe
EXTD=YEAR: 2009
EXTT0=
EXTT1=
EXTT2=
EXTT3=
EXTT4=
EXTT5=
EXTT6=
PLAYORDER=
